<?xml version="1.0" standalone="no"?>
<!DOCTYPE svg PUBLIC "-//W3C//DTD SVG 20010904//EN"
 "http://www.w3.org/TR/2001/REC-SVG-20010904/DTD/svg10.dtd">
<svg version="1.0" xmlns="http://www.w3.org/2000/svg"
 width="631.000000pt" height="624.000000pt" viewBox="0 0 631.000000 624.000000"
 preserveAspectRatio="xMidYMid meet">

<g transform="translate(0.000000,624.000000) scale(0.100000,-0.100000)"
fill="currentColor" stroke="none">
<path d="M2885 6194 c-282 -29 -591 -98 -820 -184 -595 -222 -1092 -587 -1442
-1060 -334 -453 -523 -932 -584 -1480 -17 -150 -14 -517 6 -685 30 -258 88
-497 177 -725 47 -119 121 -274 164 -342 l24 -38 2732 2 2732 3 56 105 c231
439 344 938 327 1455 -10 301 -52 553 -139 825 -354 1108 -1355 1935 -2548
2106 -101 15 -593 27 -685 18z m825 -2445 l0 -961 -22 6 c-13 4 -54 14 -93 23
-170 40 -340 -44 -449 -220 -73 -118 -106 -242 -106 -399 l0 -98 -70 0 -70 0
0 133 c0 74 -3 256 -7 405 l-6 272 49 0 c46 1 51 3 84 46 66 85 187 231 272
329 l35 39 -1 -64 -1 -65 103 -2 102 -1 -2 496 -3 497 -37 18 c-20 10 -148 56
-285 103 l-248 86 -140 -1 c-77 -1 -282 -8 -455 -16 -173 -8 -341 -15 -373
-15 l-58 0 3 57 3 58 170 21 c545 68 940 120 1245 163 190 27 348 49 353 50 4
1 7 -432 7 -960z m440 826 c129 -56 724 -308 1100 -466 52 -22 116 -50 143
-61 l47 -21 1 -561 c1 -309 2 -639 3 -733 l1 -173 -45 1 c-42 0 -48 4 -85 51
-48 61 -114 109 -193 138 -47 18 -73 21 -147 18 -118 -5 -200 -41 -285 -127
l-60 -59 -162 43 c-90 23 -247 64 -350 91 l-188 49 0 952 0 952 33 -14 c17 -7
102 -43 187 -80z m-1280 -399 c0 -11 -43 -15 -222 -20 -123 -4 -342 -11 -488
-16 -502 -18 -987 -22 -966 -10 12 8 123 15 325 22 168 5 491 15 716 22 584
19 635 19 635 2z m240 -60 c25 -8 81 -28 125 -44 l80 -30 3 -261 2 -262 -50 2
c-27 2 -52 1 -54 -2 -2 -2 -49 -58 -105 -124 -235 -277 -241 -282 -241 -253 0
6 -9 21 -20 33 -18 19 -21 38 -24 131 -2 60 -4 121 -5 137 -1 17 -7 27 -17 27
-18 0 -15 14 28 115 17 39 45 106 63 150 52 126 168 395 169 395 1 0 21 -7 46
-14z m-343 -178 c-3 -7 -68 -165 -146 -352 -78 -186 -144 -349 -147 -362 l-6
-24 -769 0 c-730 0 -769 1 -759 18 10 17 60 139 111 272 16 41 36 87 45 102 8
15 21 46 30 70 34 99 109 239 129 242 11 3 234 10 495 17 692 18 908 24 969
27 40 2 52 -1 48 -10z m-77 -1211 c0 -145 3 -346 7 -445 l6 -182 -966 0 -967
0 0 445 0 445 960 0 960 0 0 -263z m936 -162 c121 -71 204 -238 204 -410 0
-75 -19 -163 -45 -215 -30 -55 -30 -52 -5 28 35 112 21 243 -37 360 -33 65
-126 156 -190 184 -58 26 -170 31 -197 9 -9 -8 -19 -12 -21 -9 -8 8 69 58 112
74 50 19 126 10 179 -21z m574 -89 c91 -25 192 -54 225 -65 l60 -21 -115 5
c-349 14 -369 16 -376 39 -4 11 -17 43 -30 70 -13 28 -24 51 -24 52 0 1 22 -6
48 -16 26 -10 122 -39 212 -64z m844 50 c60 -18 106 -54 156 -120 22 -29 40
-55 40 -58 0 -2 -20 14 -44 38 -80 76 -225 101 -326 57 -44 -20 -132 -102
-157 -146 -23 -41 -13 -6 13 44 47 94 138 175 213 190 54 10 54 10 105 -5z
m-1545 -240 c39 -21 87 -77 101 -121 7 -20 10 -65 8 -100 -7 -107 -76 -185
-166 -185 -74 0 -137 49 -162 126 -17 50 -7 150 19 201 40 80 130 115 200 79z
m1567 -41 c143 -84 94 -365 -65 -365 -53 0 -94 30 -125 91 -52 105 -23 223 69
280 40 25 70 24 121 -6z m-606 -235 l0 -70 -221 0 -221 0 6 23 c4 12 11 43 17
70 l11 47 204 0 204 0 0 -70z"/>
<path d="M1335 2819 c-17 -4 -44 -22 -60 -39 -29 -30 -30 -35 -34 -146 -5
-161 4 -218 39 -257 l28 -32 370 -3 c412 -3 424 -2 462 60 19 30 20 46 18 190
-3 151 -4 157 -28 183 -51 55 -51 55 -422 54 -189 0 -357 -5 -373 -10z"/>
<path d="M934 2770 c-55 -23 -71 -99 -30 -147 32 -37 93 -39 130 -4 71 66 -11
189 -100 151z"/>
<path d="M2404 2770 c-53 -22 -70 -97 -33 -144 28 -35 95 -37 134 -3 73 62
-12 185 -101 147z"/>
<path d="M905 2505 c-53 -52 -12 -155 62 -155 45 0 69 14 89 51 18 37 12 74
-18 107 -31 32 -100 31 -133 -3z"/>
<path d="M2375 2505 c-32 -31 -34 -91 -4 -129 16 -21 29 -26 63 -26 60 0 96
34 96 90 0 81 -98 123 -155 65z"/>
<path d="M510 1495 c0 -3 35 -54 77 -113 250 -349 548 -626 928 -864 131 -81
430 -224 575 -273 373 -127 663 -175 1055 -175 351 0 657 48 975 152 624 204
1119 561 1525 1098 22 29 59 77 83 106 23 30 42 58 42 63 0 7 -940 10 -2630
11 -1447 0 -2630 -2 -2630 -5z"/>
</g>
</svg>
